<?xml version="1.0" encoding="UTF-8" standalone="no"?>
<svg
   xmlns:dc="http://purl.org/dc/elements/1.1/"
   xmlns:cc="http://creativecommons.org/ns#"
   xmlns:rdf="http://www.w3.org/1999/02/22-rdf-syntax-ns#"
   xmlns:svg="http://www.w3.org/2000/svg"
   xmlns="http://www.w3.org/2000/svg"
   xmlns:xlink="http://www.w3.org/1999/xlink"
   xmlns:sodipodi="http://sodipodi.sourceforge.net/DTD/sodipodi-0.dtd"
   xmlns:inkscape="http://www.inkscape.org/namespaces/inkscape"
   width="1000"
   height="270"
   id="svg2"
   version="1.1"
   inkscape:version="0.48.3.1 r9886"
   sodipodi:docname="banner.svg">
  <defs
     id="defs141" />
  <sodipodi:namedview
     pagecolor="#ffffff"
     bordercolor="#666666"
     borderopacity="1"
     objecttolerance="10"
     gridtolerance="10"
     guidetolerance="10"
     inkscape:pageopacity="0"
     inkscape:pageshadow="2"
     inkscape:window-width="1366"
     inkscape:window-height="744"
     id="namedview139"
     showgrid="false"
     inkscape:zoom="1.2904699"
     inkscape:cx="555.09516"
     inkscape:cy="224.38198"
     inkscape:window-x="0"
     inkscape:window-y="24"
     inkscape:window-maximized="1"
     inkscape:current-layer="g10"
     inkscape:snap-bbox="true"
     inkscape:object-nodes="false"
     inkscape:snap-bbox-edge-midpoints="true" />
  <!-- Created with SVG-edit - http://svg-edit.googlecode.com/ -->
  <metadata
     id="metadata133">image/svg+xml<rdf:RDF>
  <cc:Work
     rdf:about="">
    <dc:format>image/svg+xml</dc:format>
    <dc:type
       rdf:resource="http://purl.org/dc/dcmitype/StillImage" />
    <dc:title />
  </cc:Work>
</rdf:RDF>
</metadata>
  <g
     id="g4"
     display="none"
     style="display:none"
     transform="translate(0,-210)">
    <title
       id="title6">Layer 1</title>
    <image
       xlink:href="https://mail-attachment.googleusercontent.com/attachment/u/0/?ui=2&amp;ik=9c9a542429&amp;view=att&amp;th=1410af4f1441a09d&amp;attid=0.1&amp;disp=inline&amp;realattid=1445848182026975249-1&amp;safe=1&amp;zw&amp;saduie=AG9B_P-2hEX1pcBTsSxOk2raGMeW&amp;sadet=1378868647845&amp;sads=HjfDAuG1C4L_BFs7UUCIaQ1QeXs"
       id="svg_2"
       height="482"
       width="635"
       y="0"
       x="-2" />
    <rect
       id="svg_10"
       height="0"
       width="1"
       y="433"
       x="78"
       stroke-linecap="null"
       stroke-linejoin="null"
       style="fill:#e87000;stroke:#000000;stroke-width:3;stroke-opacity:0;stroke-dasharray:none" />
  </g>
  <g
     id="g10"
     display="inline"
     style="display:inline"
     transform="translate(0,-210)">
    <title
       id="title11">Layer 2</title>
    <path
       stroke-linejoin="null"
       stroke-linecap="null"
       d="m -21.174385,385.95549 43.000005,9.78723 -5,82.21277 -42.000005,0 4,-92 z"
       id="svg_22-0"
       inkscape:connector-curvature="0"
       style="fill:#007fff;stroke:#000000;stroke-width:3;stroke-opacity:0;stroke-dasharray:none;display:inline" />
    <path
       id="svg_27-0"
       d="m 902.13267,392.40143 -43.82428,0 0,83.99393 79.57567,-1.31889 -1.72991,-45.30139 c -10.18722,-1.10385 -20.37445,-2.20773 -30.56167,-3.31158 l -3.45981,-34.06207 z"
       stroke-linecap="null"
       stroke-linejoin="null"
       inkscape:connector-curvature="0"
       style="fill:#7f0000;fill-opacity:1;stroke:#000000;stroke-width:3.42856669;stroke-opacity:0;stroke-dasharray:none;display:inline" />
    <path
       id="svg_23-1"
       d="m 922.8191,349.33046 35,5 -14,124 -44,1 23,-130 z"
       stroke-linecap="null"
       stroke-linejoin="null"
       inkscape:connector-curvature="0"
       style="fill:#007f00;fill-opacity:1;stroke:#000000;stroke-width:3;stroke-opacity:0;stroke-dasharray:none;display:inline" />
    <path
       id="svg_18-7"
       d="m 899.82613,401.26642 -35.75139,-1.03561 5.76636,77.67147 76.11585,1.03561 0.57663,-33.65763 -46.32909,-8.25972 z"
       stroke-linecap="null"
       stroke-linejoin="null"
       inkscape:connector-curvature="0"
       style="fill:#000000;fill-opacity:0;stroke:#000000;stroke-width:3.31143045;stroke-dasharray:none;display:inline"
       sodipodi:nodetypes="ccccccc" />
    <path
       id="svg_3-4"
       d="m 741.28431,363.16362 45,-17 -26,132 -30,0 11,-115 z"
       stroke-linecap="null"
       stroke-linejoin="null"
       inkscape:connector-curvature="0"
       style="fill:#00bf5f;stroke:#000000;stroke-width:5;stroke-opacity:0;stroke-dasharray:none;display:inline" />
    <path
       style="fill:#00007f;stroke:#000000;stroke-width:3;stroke-opacity:0;stroke-dasharray:none;display:inline"
       inkscape:connector-curvature="0"
       id="svg_1-4"
       d="m 686.27533,365.16274 28,0 -4,112.56299 -38,-0.0644 14,-112.49856 z"
       stroke-linecap="null"
       stroke-linejoin="null" />
    <path
       style="fill:#007fff;stroke:#000000;stroke-width:3;stroke-opacity:0;stroke-dasharray:none;display:inline"
       inkscape:connector-curvature="0"
       id="svg_22-5"
       d="m 732.40079,477.10121 -39.12545,1.06153 2.67526,-66.71454 42,0 z"
       stroke-linecap="null"
       stroke-linejoin="null"
       sodipodi:nodetypes="ccccc" />
    <path
       id="svg_9-0"
       d="m 733.28431,368.03367 45,-15.9697 -26,124 -30,0 11,-108.0303 z"
       stroke-linecap="null"
       stroke-linejoin="null"
       inkscape:connector-curvature="0"
       style="fill:#000000;fill-opacity:0;stroke:#000000;stroke-width:3;stroke-dasharray:none;display:inline" />
    <path
       style="fill:#ffff00;stroke:#000000;stroke-width:5;stroke-opacity:0;stroke-dasharray:none"
       inkscape:connector-curvature="0"
       stroke-linejoin="null"
       stroke-linecap="null"
       d="m 433.05066,295.96773 11.54747,-10.65072 4.64634,20.55673 -16.19381,-9.90601 z"
       id="svg_56" />
    <path
       style="fill:#000000;fill-opacity:0;stroke:#ff7f00;stroke-width:3;stroke-dasharray:none"
       inkscape:connector-curvature="0"
       stroke-linejoin="null"
       stroke-linecap="null"
       d="m 429.38847,295.66561 21.39423,-5.12785 -1.67358,21.98956 -19.72065,-16.86171 z"
       id="svg_80" />
    <path
       style="fill:#ffff00;stroke:#000000;stroke-width:5;stroke-opacity:0;stroke-dasharray:none"
       inkscape:connector-curvature="0"
       stroke-linejoin="null"
       stroke-linecap="null"
       d="m 464.65766,294.70562 c 0,-17.9558 15.21545,-32.5 34,-32.5 18.78454,0 34,14.5442 34,32.5 0,17.95581 -15.21546,32.5 -34,32.5 -18.78455,0 -34,-14.54419 -34,-32.5 z"
       id="svg_4" />
    <path
       style="fill:#ffff00;stroke:#000000;stroke-width:5;stroke-opacity:0;stroke-dasharray:none"
       inkscape:connector-curvature="0"
       stroke-linejoin="null"
       stroke-linecap="null"
       d="m 454.65766,245.20562 21,15 -18,14 -3,-29 z"
       id="svg_49" />
    <path
       style="fill:#ffff00;stroke:#000000;stroke-width:5;stroke-opacity:0;stroke-dasharray:none"
       inkscape:connector-curvature="0"
       stroke-linejoin="null"
       stroke-linecap="null"
       d="m 458.96157,358.43818 5.28781,-26.79719 14.02583,6.90424 -19.31364,19.89295 z"
       id="svg_70" />
    <path
       style="fill:#ffff00;stroke:#000000;stroke-width:5;stroke-opacity:0;stroke-dasharray:none"
       inkscape:connector-curvature="0"
       stroke-linejoin="null"
       stroke-linecap="null"
       d="m 525.69788,351.1046 -14.71217,-9.79723 18.0258,-8.09582 -3.31363,17.89305 z"
       id="svg_71" />
    <path
       style="fill:#ffff00;stroke:#ff7f00;stroke-width:3;stroke-dasharray:none"
       inkscape:connector-curvature="0"
       stroke-linejoin="null"
       stroke-linecap="null"
       d="m 523.85407,237.20562 -5,18 -15,-3 20,-15 z"
       id="svg_72" />
    <path
       style="fill:#ffff00;stroke:#000000;stroke-width:5;stroke-opacity:0;stroke-dasharray:none"
       inkscape:connector-curvature="0"
       stroke-linejoin="null"
       stroke-linecap="null"
       d="m 550.35407,258.70562 -11,18 -7,-15 18,-3 z"
       id="svg_73" />
    <path
       style="fill:#ffff00;stroke:#000000;stroke-width:5;stroke-opacity:0;stroke-dasharray:none"
       inkscape:connector-curvature="0"
       stroke-linejoin="null"
       stroke-linecap="null"
       d="m 558.07989,305.47425 -20.41273,5.3217 5.37313,-15.65661 15.0396,10.33491 z"
       id="svg_74" />
    <path
       style="fill:#000000;fill-opacity:0;stroke:#ff7f00;stroke-width:3;stroke-dasharray:none"
       inkscape:connector-curvature="0"
       stroke-linejoin="null"
       stroke-linecap="null"
       d="m 454.85407,244.20562 21,15 -18,14 -3,-29 z"
       id="svg_75" />
    <path
       style="fill:#000000;fill-opacity:0;stroke:#ff7f00;stroke-width:3;stroke-dasharray:none"
       inkscape:connector-curvature="0"
       stroke-linejoin="null"
       stroke-linecap="null"
       d="m 458.35407,299.20562 c 0,-18.23205 15.43918,-33 34.5,-33 19.06079,0 34.5,14.76795 34.5,33 0,18.23204 -15.43921,33 -34.5,33 -19.06082,0 -34.5,-14.76796 -34.5,-33 z"
       id="svg_76" />
    <path
       style="fill:#ff7f00;fill-opacity:0;stroke:#ff7f00;stroke-width:3"
       inkscape:connector-curvature="0"
       stroke-linejoin="null"
       stroke-linecap="null"
       d="m 520.37086,353.15227 -13.13648,-13.14782 19.57562,-8.48331 -6.43915,21.63113 z"
       id="svg_77" />
    <path
       style="fill:#000000;fill-opacity:0;stroke:#ff7f00;stroke-width:3;stroke-dasharray:none"
       inkscape:connector-curvature="0"
       stroke-linejoin="null"
       stroke-linecap="null"
       d="m 559.56025,299.21257 -24.41269,9.32173 7.3731,-18.65663 17.03959,9.3349 z"
       id="svg_78" />
    <path
       style="fill:#000000;fill-opacity:0;stroke:#ff7f00;stroke-width:3;stroke-dasharray:none"
       inkscape:connector-curvature="0"
       stroke-linejoin="null"
       stroke-linecap="null"
       d="m 549.35407,261.70562 -11,18 -7,-15 18,-3 z"
       id="svg_79" />
    <path
       style="fill:#000000;fill-opacity:0;stroke:#ff7f00;stroke-width:3;stroke-dasharray:none"
       inkscape:connector-curvature="0"
       stroke-linejoin="null"
       stroke-linecap="null"
       d="m 457.89377,360.31285 4.28776,-29.79718 21.0258,8.90423 -25.31356,20.89295 z"
       id="svg_81" />
    <path
       style="fill:#000000;fill-opacity:0;stroke:#000000;stroke-width:3;stroke-dasharray:none;display:inline"
       inkscape:connector-curvature="0"
       id="svg_5-4"
       d="m 675.77533,371.66274 28,0 -9,106.46847 -34,-0.96847 15,-105.5 z"
       stroke-linecap="null"
       stroke-linejoin="null" />
    <path
       style="fill:#007fff;stroke:#000000;stroke-width:2.79706144;stroke-opacity:0;stroke-dasharray:none;display:inline"
       inkscape:connector-curvature="0"
       id="svg_22-5-2"
       d="m 696.9057,419.86536 39.12545,-0.92278 -2.67527,57.99386 -42,0 z"
       stroke-linecap="null"
       stroke-linejoin="null"
       sodipodi:nodetypes="ccccc" />
    <path
       style="fill:#000000;fill-opacity:0;stroke:#000000;stroke-width:3;stroke-dasharray:none;display:inline"
       inkscape:connector-curvature="0"
       id="svg_24-5"
       d="m 682.80113,419.95991 46.87455,-0.46917 -1.90035,58.672 -42,0 z"
       stroke-linecap="null"
       stroke-linejoin="null"
       sodipodi:nodetypes="ccccc" />
    <path
       style="fill:#007f00;stroke:#000000;stroke-width:3;stroke-opacity:0;stroke-dasharray:none;display:inline"
       inkscape:connector-curvature="0"
       stroke-linejoin="null"
       stroke-linecap="null"
       d="m 644.27533,332.16274 35,15 -13,130.5 -36,-0.5 14,-145 z"
       id="svg_32-9" />
    <path
       style="fill:#000000;fill-opacity:0;stroke:#000000;stroke-width:3;stroke-dasharray:none;display:inline"
       inkscape:connector-curvature="0"
       stroke-linejoin="null"
       stroke-linecap="null"
       d="m 636.77533,342.16274 33,4 -8,131 -34.99999,-2 9.99999,-133 z"
       id="svg_33-7" />
    <path
       style="fill:#dbdb08;fill-opacity:1;stroke:#000000;stroke-width:3;stroke-opacity:0;stroke-dasharray:none;display:inline"
       inkscape:connector-curvature="0"
       stroke-linejoin="null"
       stroke-linecap="null"
       d="m 605.27534,258.16274 37.99999,-1 -22.99999,221 -40,-14 25,-206 z"
       id="svg_28-9" />
    <path
       style="fill:none;stroke:#000000;stroke-width:3;stroke-dasharray:none;display:inline"
       inkscape:connector-curvature="0"
       stroke-linejoin="null"
       stroke-linecap="null"
       d="m 592.77534,266.63048 37.99999,-0.96774 -21.99999,210 -41,-9.67743 25,-199.35483 z"
       id="svg_29-4" />
    <path
       style="fill:#7f0000;fill-opacity:1;stroke:#000000;stroke-width:3;stroke-dasharray:none;display:inline"
       inkscape:connector-curvature="0"
       stroke-linejoin="null"
       stroke-linecap="null"
       d="m 590.27534,459.16274 22,0 -1,19 -24,0 3,-19 z"
       id="svg_21-2" />
    <path
       style="fill:#0000bf;stroke:#000000;stroke-width:3;stroke-opacity:0;stroke-dasharray:none;display:inline"
       inkscape:connector-curvature="0"
       stroke-linejoin="null"
       stroke-linecap="null"
       d="m 616.96764,428.16274 20.30769,1 -2.53845,47 -19.46154,2 1.6923,-50 z"
       id="svg_30-3" />
    <path
       style="fill:#000000;fill-opacity:0;stroke:#000000;stroke-width:3;stroke-dasharray:none;display:inline"
       inkscape:connector-curvature="0"
       stroke-linejoin="null"
       stroke-linecap="null"
       d="m 613.66033,431.16274 26.615,0.10825 -0.577,45.16549 -30.42299,0.72626 4.38499,-46 z"
       id="svg_31-4" />
    <path
       style="fill:#dbdb08;stroke:#000000;stroke-width:3;stroke-opacity:0;stroke-dasharray:none;display:inline"
       inkscape:connector-curvature="0"
       stroke-linejoin="null"
       stroke-linecap="null"
       d="m 657.27533,446.12221 36,-2.95947 -2,36.5 -36,-1.97296 2,-31.56757 z"
       id="svg_34-3" />
    <path
       style="fill:#000000;fill-opacity:0;stroke:#000000;stroke-width:3;stroke-dasharray:none;display:inline"
       inkscape:connector-curvature="0"
       stroke-linejoin="null"
       stroke-linecap="null"
       d="m 652.27533,447.38851 32,-2.22577 0,32.55884 -33,-0.54218 1,-29.79089 z"
       id="svg_35-9" />
    <path
       id="svg_62"
       d="m 569.77668,479.78871 25,-1.24243 4,-95.23233 -22,-1.76767 -7,98.24243 z"
       stroke-linecap="null"
       stroke-linejoin="null"
       inkscape:connector-curvature="0"
       style="fill:#e87000;stroke:#000000;stroke-width:3;stroke-opacity:0;stroke-dasharray:none" />
    <path
       id="svg_60"
       stroke-linejoin="null"
       stroke-linecap="null"
       d="m 555.77668,307.54628 35,0.96045 -16,167.11865 -39,1.9209 20,-170 z"
       inkscape:connector-curvature="0"
       style="fill:#007fff;stroke:#000000;stroke-width:3;stroke-opacity:0;stroke-dasharray:none" />
    <rect
       id="svg_55"
       height="36"
       width="26.999998"
       y="441.5463"
       x="532.27667"
       stroke-linecap="null"
       stroke-linejoin="null"
       style="fill:#7f003f;stroke:#000000;stroke-width:3;stroke-opacity:0;stroke-dasharray:none" />
    <path
       id="svg_50"
       d="m 491.27668,360.20845 30,-0.16217 -15,118 -32,0.89191 17,-118.72974 z"
       stroke-linecap="null"
       stroke-linejoin="null"
       inkscape:connector-curvature="0"
       style="fill:#dbdb08;stroke:#000000;stroke-width:3;stroke-opacity:0;stroke-dasharray:none" />
    <path
       id="svg_46"
       d="m 458.79841,450.54628 21.47827,-2 c -1.50687,11 -1.88443,21 -3.3913,32 l -22.6087,-5 4.52173,-25 z"
       stroke-linecap="null"
       stroke-linejoin="null"
       inkscape:connector-curvature="0"
       style="fill:#00bf5f;stroke:#000000;stroke-width:5;stroke-opacity:0;stroke-dasharray:none" />
    <path
       id="svg_51"
       d="m 481.77668,364.25529 30,-0.15502 -15,113.03802 -32,0.854 17,-113.737 z"
       stroke-linecap="null"
       stroke-linejoin="null"
       inkscape:connector-curvature="0"
       style="fill:#000000;fill-opacity:0;stroke:#000000;stroke-width:3;stroke-dasharray:none" />
    <path
       id="svg_41"
       stroke-linejoin="null"
       stroke-linecap="null"
       d="m 406.27668,365.04628 32,-1 -11,97 -33,18 12,-114 z"
       inkscape:connector-curvature="0"
       style="fill:#00007f;stroke:#000000;stroke-width:3;stroke-opacity:0;stroke-dasharray:none" />
    <path
       id="svg_42"
       stroke-linejoin="null"
       stroke-linecap="null"
       d="m 402.27668,372.04628 27,2 -9,94 -28,4 10,-100 z"
       inkscape:connector-curvature="0"
       style="fill:#000000;fill-opacity:0;stroke:#000000;stroke-width:3;stroke-dasharray:none" />
    <path
       id="svg_43"
       d="m 416.27668,404.46974 47,-1.92346 -5,75 -46,1.19269 4,-74.26923 z"
       stroke-linecap="null"
       stroke-linejoin="null"
       inkscape:connector-curvature="0"
       style="fill:#7f0000;stroke:#000000;stroke-width:3;stroke-opacity:0;stroke-dasharray:none" />
    <path
       stroke-linejoin="null"
       stroke-linecap="null"
       d="m 297.27668,365.54628 28,0 -4,112.56299 -38,-0.0644 14,-112.49856 z"
       id="svg_1"
       inkscape:connector-curvature="0"
       style="fill:#00007f;stroke:#000000;stroke-width:3;stroke-opacity:0;stroke-dasharray:none" />
    <path
       stroke-linejoin="null"
       stroke-linecap="null"
       d="m 286.77668,372.04628 28,0 -9,106.46847 -34,-0.96847 15,-105.5 z"
       id="svg_5"
       inkscape:connector-curvature="0"
       style="fill:#000000;fill-opacity:0;stroke:#000000;stroke-width:3;stroke-dasharray:none" />
    <path
       stroke-linejoin="null"
       stroke-linecap="null"
       d="m 308.27668,386.54628 43,9.78723 -5,82.21277 -42,0 4,-92 z"
       id="svg_22"
       inkscape:connector-curvature="0"
       style="fill:#007fff;stroke:#000000;stroke-width:3;stroke-opacity:0;stroke-dasharray:none" />
    <path
       stroke-linejoin="null"
       stroke-linecap="null"
       d="m 300.77668,395.54628 43,8.82977 -5,74.17023 -42,0 4,-83 z"
       id="svg_24"
       inkscape:connector-curvature="0"
       style="fill:#000000;fill-opacity:0;stroke:#000000;stroke-width:3;stroke-dasharray:none" />
    <path
       id="svg_32"
       d="m 255.27668,332.54628 35,15 -13,130.5 -36,-0.5 14,-145 z"
       stroke-linecap="null"
       stroke-linejoin="null"
       inkscape:connector-curvature="0"
       style="fill:#007f00;stroke:#000000;stroke-width:3;stroke-opacity:0;stroke-dasharray:none" />
    <path
       id="svg_33"
       d="m 247.77668,342.54628 33,4 -8,131 -35,-2 10,-133 z"
       stroke-linecap="null"
       stroke-linejoin="null"
       inkscape:connector-curvature="0"
       style="fill:#000000;fill-opacity:0;stroke:#000000;stroke-width:3;stroke-dasharray:none" />
    <path
       id="svg_28"
       d="m 216.27668,258.54628 38,-1 -23,221 -40,-14 25,-206 z"
       stroke-linecap="null"
       stroke-linejoin="null"
       inkscape:connector-curvature="0"
       style="fill:#ff007f;stroke:#000000;stroke-width:3;stroke-opacity:0;stroke-dasharray:none" />
    <path
       id="svg_29"
       d="m 203.77668,267.01402 38,-0.96774 -22,210 -41,-9.67743 25,-199.35483 z"
       stroke-linecap="null"
       stroke-linejoin="null"
       inkscape:connector-curvature="0"
       style="fill:none;stroke:#000000;stroke-width:3;stroke-dasharray:none" />
    <path
       id="svg_23"
       d="m 176.27668,349.54628 35,5 -14,124 -44,1 23,-130 z"
       stroke-linecap="null"
       stroke-linejoin="null"
       inkscape:connector-curvature="0"
       style="fill:#7f0000;stroke:#000000;stroke-width:3;stroke-opacity:0;stroke-dasharray:none" />
    <path
       id="svg_17"
       d="m 149.27668,398.30763 38,-2.76135 -4,81 -66,-1.84091 1.5,-36.35794 26.5,-3.22159 4,-36.81821 z"
       stroke-linecap="null"
       stroke-linejoin="null"
       inkscape:connector-curvature="0"
       style="fill:#00007f;stroke:#000000;stroke-width:3;stroke-opacity:0;stroke-dasharray:none" />
    <path
       id="svg_25"
       d="m 166.27668,360.46754 39,-0.92126 -14,116.07873 -44,0.92127 19,-116.07874 z"
       stroke-linecap="null"
       stroke-linejoin="null"
       inkscape:connector-curvature="0"
       style="fill:#000000;fill-opacity:0;stroke:#000000;stroke-width:3;stroke-dasharray:none" />
    <path
       id="svg_19"
       d="m 94.276681,242.54628 54.999999,-1 -10,225 -67.999999,2 23,-226 z"
       stroke-linecap="null"
       stroke-linejoin="null"
       inkscape:connector-curvature="0"
       style="fill:#007f00;stroke:#000000;stroke-width:3;stroke-opacity:0;stroke-dasharray:none" />
    <path
       id="svg_20"
       d="m 86.276681,257.83939 49.999999,-5.79311 -8,224 -64.999999,0 23,-218.20689 z"
       stroke-linecap="null"
       stroke-linejoin="null"
       inkscape:connector-curvature="0"
       style="fill:#000000;fill-opacity:0;stroke:#000000;stroke-width:3;stroke-dasharray:none" />
    <path
       id="svg_15"
       d="m 109.27668,377.54628 25,-2 1,78 -31,19 5,-95 z"
       stroke-linecap="null"
       stroke-linejoin="null"
       inkscape:connector-curvature="0"
       style="fill:#fc3cfc;stroke:#000000;stroke-width:3;stroke-opacity:0;stroke-dasharray:none" />
    <path
       id="svg_16"
       d="m 106.77668,384.88628 24,-3.84 0,77.76001 -25,18.23999 1,-92.16 z"
       stroke-linecap="null"
       stroke-linejoin="null"
       inkscape:connector-curvature="0"
       style="fill:#000000;fill-opacity:0;stroke:#000000;stroke-width:3;stroke-dasharray:none" />
    <path
       id="svg_12"
       d="m 44.276681,317.54628 44,-1 -8,149 -56,5 20,-153 z"
       stroke-linecap="null"
       stroke-linejoin="null"
       inkscape:connector-curvature="0"
       style="fill:#e87000;stroke:#000000;stroke-width:3;stroke-opacity:0;stroke-dasharray:none" />
    <path
       id="svg_13"
       d="m 32.276681,328.31987 50,-5.77359 -14,148.18869 -51,5.81131 15,-148.22641 z"
       stroke-linecap="null"
       stroke-linejoin="null"
       inkscape:connector-curvature="0"
       style="fill:#000000;fill-opacity:0;stroke:#000000;stroke-width:3;stroke-dasharray:none" />
    <path
       id="svg_3"
       d="m 24.276681,362.54628 45,-17 -26,132 -30,0 11,-115 z"
       stroke-linecap="null"
       stroke-linejoin="null"
       inkscape:connector-curvature="0"
       style="fill:#00bf5f;stroke:#000000;stroke-width:5;stroke-opacity:0;stroke-dasharray:none" />
    <rect
       id="svg_7"
       height="3"
       width="0"
       y="304"
       x="-126"
       stroke-linecap="null"
       stroke-linejoin="null"
       style="fill:#000000;fill-opacity:0;stroke:#000000;stroke-width:3;stroke-dasharray:none" />
    <path
       id="svg_9"
       d="m 16.276681,370.51598 45,-15.9697 -26,124 -30.0000003,0 11.0000003,-108.0303 z"
       stroke-linecap="null"
       stroke-linejoin="null"
       inkscape:connector-curvature="0"
       style="fill:#000000;fill-opacity:0;stroke:#000000;stroke-width:3;stroke-dasharray:none" />
    <path
       id="svg_8"
       d="m 46.276681,452.54628 31,3 -2,20 -32,2 3,-25 z"
       stroke-linecap="null"
       stroke-linejoin="null"
       inkscape:connector-curvature="0"
       style="fill:#e87000;stroke:#000000;stroke-width:3;stroke-opacity:0;stroke-dasharray:none" />
    <path
       id="svg_11"
       d="m 43.276681,453.04628 31,3 -2,20 -32,2 3,-25 z"
       stroke-linecap="null"
       stroke-linejoin="null"
       inkscape:connector-curvature="0"
       style="fill:#007fff;stroke:#000000;stroke-width:3;stroke-dasharray:none" />
    <path
       id="svg_14"
       d="m 78.276681,430.25536 40.999999,-3.70908 0,50.07272 -47.999999,0.92728 7,-47.29092 z"
       stroke-linecap="null"
       stroke-linejoin="null"
       inkscape:connector-curvature="0"
       style="fill:#dbdb08;stroke:#000000;stroke-width:3;stroke-dasharray:none" />
    <path
       id="svg_27"
       d="m 146.27668,405.54628 38,0 0,74.16455 -69,-1.16455 1.5,-40 c 8.83333,-0.97467 17.66667,-1.94937 26.5,-2.92404 l 3,-30.07596 z"
       stroke-linecap="null"
       stroke-linejoin="null"
       inkscape:connector-curvature="0"
       style="fill:#00007f;stroke:#000000;stroke-width:3;stroke-opacity:0;stroke-dasharray:none" />
    <path
       id="svg_18"
       d="m 148.27668,404.52653 31,-0.98025 -5,73.51974 -66,0.98026 -0.5,-31.85855 39.5,2.45065 1,-44.11185 z"
       stroke-linecap="null"
       stroke-linejoin="null"
       inkscape:connector-curvature="0"
       style="fill:#000000;fill-opacity:0;stroke:#000000;stroke-width:3;stroke-dasharray:none" />
    <path
       id="svg_21"
       d="m 201.27668,459.54628 22,0 -1,19 -24,0 3,-19 z"
       stroke-linecap="null"
       stroke-linejoin="null"
       inkscape:connector-curvature="0"
       style="fill:#ff7f00;stroke:#000000;stroke-width:3;stroke-dasharray:none" />
    <path
       id="svg_30"
       d="m 227.96898,428.54628 20.3077,1 -2.53845,47 -19.46155,2 1.6923,-50 z"
       stroke-linecap="null"
       stroke-linejoin="null"
       inkscape:connector-curvature="0"
       style="fill:#0000bf;stroke:#000000;stroke-width:3;stroke-opacity:0;stroke-dasharray:none" />
    <path
       id="svg_31"
       d="m 224.66167,431.54628 26.61501,0.10825 -0.577,45.16549 -30.423,0.72626 4.38499,-46 z"
       stroke-linecap="null"
       stroke-linejoin="null"
       inkscape:connector-curvature="0"
       style="fill:#000000;fill-opacity:0;stroke:#000000;stroke-width:3;stroke-dasharray:none" />
    <path
       id="svg_34"
       d="m 268.27668,446.50575 36,-2.95947 -2,36.5 -36,-1.97296 2,-31.56757 z"
       stroke-linecap="null"
       stroke-linejoin="null"
       inkscape:connector-curvature="0"
       style="fill:#dbdb08;stroke:#000000;stroke-width:3;stroke-opacity:0;stroke-dasharray:none" />
    <path
       id="svg_35"
       d="m 263.27668,447.77205 32,-2.22577 0,32.55884 -33,-0.54218 1,-29.79089 z"
       stroke-linecap="null"
       stroke-linejoin="null"
       inkscape:connector-curvature="0"
       style="fill:#000000;fill-opacity:0;stroke:#000000;stroke-width:3;stroke-dasharray:none" />
    <ellipse
       stroke-linejoin="null"
       stroke-linecap="null"
       cx="-160"
       cy="300"
       id="svg_6"
       rx="0"
       ry="0"
       sodipodi:cx="-160"
       sodipodi:cy="300"
       sodipodi:rx="0"
       sodipodi:ry="0"
       style="fill:#000000;fill-opacity:0;stroke:#000000;stroke-width:3;stroke-dasharray:none" />
    <path
       d="m 358.27668,298.54628 43,-15 -18,196 -38,0 13,-181 z"
       stroke-linecap="null"
       stroke-linejoin="null"
       id="svg_36"
       inkscape:connector-curvature="0"
       style="fill:#e87000;stroke:#000000;stroke-width:3;stroke-opacity:0;stroke-dasharray:none" />
    <path
       d="m 350.77668,313.03114 43,-13.48486 -18,178.20203 -39,-0.20203 14,-164.51514 z"
       stroke-linecap="null"
       stroke-linejoin="null"
       id="svg_37"
       inkscape:connector-curvature="0"
       style="fill:#000000;fill-opacity:0;stroke:#000000;stroke-width:3;stroke-dasharray:none" />
    <path
       d="m 369.77668,448.04628 63,-1 -1,29 -62,2 0,-30 z"
       stroke-linecap="null"
       stroke-linejoin="null"
       id="svg_38"
       inkscape:connector-curvature="0"
       style="fill:#fc3cfc;stroke:#000000;stroke-width:3;stroke-opacity:0;stroke-dasharray:none" />
    <path
       id="svg_45"
       d="m 409.77668,413.79933 47,-1.75305 0,66.24695 -49,-2.24695 2,-62.24695 z"
       stroke-linecap="null"
       stroke-linejoin="null"
       inkscape:connector-curvature="0"
       style="fill:#000000;fill-opacity:0;stroke:#000000;stroke-width:3;stroke-dasharray:none" />
    <path
       id="svg_44"
       d="m 368.77668,454.88499 63,-0.83871 -1,24.32257 -62,1.67743 0,-25.16129 z"
       stroke-linecap="null"
       stroke-linejoin="null"
       inkscape:connector-curvature="0"
       style="fill:#fc3cfc;stroke:#000000;stroke-width:3;stroke-opacity:0;stroke-dasharray:none" />
    <path
       d="m 362.77668,453.85274 63,-0.80646 0,24.38708 -63,0.61292 0,-24.19354 z"
       stroke-linecap="null"
       stroke-linejoin="null"
       id="svg_39"
       inkscape:connector-curvature="0"
       style="fill:#000000;fill-opacity:0;stroke:#000000;stroke-width:3;stroke-dasharray:none" />
    <rect
       id="svg_26"
       height="0"
       width="1"
       y="158"
       x="-181"
       style="fill:#ff0000;stroke:#000000;stroke-width:5" />
    <path
       id="svg_52"
       d="m 458.27668,455.73378 17.5,-3.1875 c -1.33301,9.28125 -1.66699,17.71875 -3,27 l -18.5,0.28125 4,-24.09375 z"
       stroke-linecap="null"
       stroke-linejoin="null"
       inkscape:connector-curvature="0"
       style="fill:#00bf5f;stroke:#000000;stroke-width:5;stroke-opacity:0;stroke-dasharray:none" />
    <path
       id="svg_47"
       d="m 451.87168,454.04628 21.905,1 -1.28601,23 -21.71399,0 1.095,-24 z"
       stroke-linecap="null"
       stroke-linejoin="null"
       inkscape:connector-curvature="0"
       style="fill:#000000;fill-opacity:0;stroke:#000000;stroke-width:3;stroke-dasharray:none" />
    <path
       id="svg_53"
       d="m 518.27668,380.54628 32,-1 -11,100 -34,0.5 13,-99.5 z"
       stroke-linecap="null"
       stroke-linejoin="null"
       inkscape:connector-curvature="0"
       style="fill:#007f00;stroke:#000000;stroke-width:3;stroke-opacity:0;stroke-dasharray:none" />
    <path
       id="svg_54"
       d="m 509.77668,386.04628 30,1.82352 -12.5,89.67648 -30.5,0.58823 13,-92.08823 z"
       stroke-linecap="null"
       stroke-linejoin="null"
       inkscape:connector-curvature="0"
       style="fill:#000000;fill-opacity:0;stroke:#000000;stroke-width:3;stroke-dasharray:none" />
    <path
       id="svg_58"
       d="m 533.77668,444.54628 20,2 1,32 -28,0 7,-34 z"
       stroke-linecap="null"
       stroke-linejoin="null"
       inkscape:connector-curvature="0"
       style="fill:#000000;fill-opacity:0;stroke:#000000;stroke-width:3;stroke-dasharray:none" />
    <path
       id="svg_61"
       stroke-linejoin="null"
       stroke-linecap="null"
       d="m 548.77668,319.04628 35,0.90399 -16,157.288 -39,0.30801 20,-158.5 z"
       inkscape:connector-curvature="0"
       style="fill:#000000;fill-opacity:0;stroke:#000000;stroke-width:3;stroke-dasharray:none" />
    <line
       id="svg_63"
       y2="376.5463"
       x2="495.2767"
       y1="304.5463"
       x1="137.27667"
       stroke-linecap="null"
       stroke-linejoin="null"
       style="fill:none;stroke:#000000;stroke-width:3;stroke-opacity:0;stroke-dasharray:none" />
    <path
       d="m 566.77668,477.66728 21,-0.242 4,-87.233 -14,-6.767 -11,94.242 z"
       stroke-linecap="null"
       stroke-linejoin="null"
       id="svg_83"
       inkscape:connector-curvature="0"
       style="fill:#000000;fill-opacity:0;stroke:#000000;stroke-width:3;stroke-dasharray:none" />
    <path
       id="svg_19-6"
       d="m 813.60906,278.95991 57.32473,-1.65588 -3.0258,200.70834 -74.97421,-0.72901 z"
       stroke-linecap="null"
       stroke-linejoin="null"
       inkscape:connector-curvature="0"
       style="fill:#00bf5f;fill-opacity:1;stroke:#000000;stroke-width:2.81579399;stroke-opacity:0;stroke-dasharray:none;display:inline"
       sodipodi:nodetypes="ccccc" />
    <path
       id="svg_20-8"
       d="m 810.25852,286.57282 48.45018,-1.19268 -6.45018,192.05839 -65.00001,0 z"
       stroke-linecap="null"
       stroke-linejoin="null"
       inkscape:connector-curvature="0"
       style="fill:#000000;fill-opacity:0;stroke:#000000;stroke-width:2.80576301;stroke-dasharray:none;display:inline"
       sodipodi:nodetypes="ccccc" />
    <path
       id="svg_15-8"
       d="m 826.28432,378.16362 25,-2 2.54982,102.02226 -32.54982,-5.02226 z"
       stroke-linecap="null"
       stroke-linejoin="null"
       inkscape:connector-curvature="0"
       style="fill:#fc3cfc;stroke:#000000;stroke-width:3;stroke-opacity:0;stroke-dasharray:none;display:inline"
       sodipodi:nodetypes="ccccc" />
    <path
       id="svg_16-2"
       d="m 823.78432,385.50362 24,-3.84 0,97.1328 -25,-1.1328 z"
       stroke-linecap="null"
       stroke-linejoin="null"
       inkscape:connector-curvature="0"
       style="fill:#000000;fill-opacity:0;stroke:#000000;stroke-width:3;stroke-dasharray:none;display:inline"
       sodipodi:nodetypes="ccccc" />
    <path
       id="svg_12-0"
       d="m 761.28431,318.16362 44.00001,-1 -7.22509,160.62367 -56.00001,0.35053 z"
       stroke-linecap="null"
       stroke-linejoin="null"
       inkscape:connector-curvature="0"
       style="fill:#e87000;stroke:#000000;stroke-width:3;stroke-opacity:0;stroke-dasharray:none;display:inline"
       sodipodi:nodetypes="ccccc" />
    <path
       id="svg_13-2"
       d="m 745.40975,325.83756 53.87457,-2.67394 -14.00001,148.18869 -51,5.81131 z"
       stroke-linecap="null"
       stroke-linejoin="null"
       inkscape:connector-curvature="0"
       style="fill:#000000;fill-opacity:0;stroke:#000000;stroke-width:3;stroke-dasharray:none;display:inline"
       sodipodi:nodetypes="ccccc" />
    <path
       id="svg_8-1"
       d="m 763.28431,453.16362 31.00001,3 -2,20 -32.00001,2 3,-25 z"
       stroke-linecap="null"
       stroke-linejoin="null"
       inkscape:connector-curvature="0"
       style="fill:#e87000;stroke:#000000;stroke-width:3;stroke-opacity:0;stroke-dasharray:none;display:inline" />
    <path
       id="svg_11-1"
       d="m 760.28431,453.66362 31.00001,3 -2.00001,20 -32,2 3,-25 z"
       stroke-linecap="null"
       stroke-linejoin="null"
       inkscape:connector-curvature="0"
       style="fill:#007fff;stroke:#000000;stroke-width:3;stroke-dasharray:none;display:inline" />
    <path
       id="svg_14-1"
       d="m 795.28432,430.8727 41,-3.70908 0,50.07272 -48.00001,0.92728 7.00001,-47.29092 z"
       stroke-linecap="null"
       stroke-linejoin="null"
       inkscape:connector-curvature="0"
       style="fill:#dbdb08;stroke:#000000;stroke-width:3;stroke-dasharray:none;display:inline" />
    <path
       id="svg_28-95"
       d="m 962.8191,258.33046 38,-1 -23,221 -40,-14 25,-206 z"
       stroke-linecap="null"
       stroke-linejoin="null"
       inkscape:connector-curvature="0"
       style="fill:#00007f;fill-opacity:1;stroke:#000000;stroke-width:3;stroke-opacity:0;stroke-dasharray:none;display:inline" />
    <path
       id="svg_29-9"
       d="m 950.3191,266.7982 38,-0.96774 -22,210 -41,-9.67743 25,-199.35483 z"
       stroke-linecap="null"
       stroke-linejoin="null"
       inkscape:connector-curvature="0"
       style="fill:none;stroke:#000000;stroke-width:3;stroke-dasharray:none;display:inline" />
    <path
       id="svg_21-6"
       d="m 947.8191,459.33046 22,0 -1,19 -24,0 3,-19 z"
       stroke-linecap="null"
       stroke-linejoin="null"
       inkscape:connector-curvature="0"
       style="fill:#ff7f00;stroke:#000000;stroke-width:3;stroke-dasharray:none;display:inline" />
    <path
       id="svg_30-6"
       d="m 975.40169,428.33046 30.99121,1 -3.8738,47 -29.7,2 2.58259,-50 z"
       stroke-linecap="null"
       stroke-linejoin="null"
       inkscape:connector-curvature="0"
       style="fill:#7f0000;fill-opacity:1;stroke:#000000;stroke-width:3.70604324;stroke-opacity:0;stroke-dasharray:none;display:inline" />
    <path
       id="svg_31-7"
       d="m 973.79754,430.653 26.61496,0.10825 -2.90168,48.26514 -28.09827,-2.37339 z"
       stroke-linecap="null"
       stroke-linejoin="null"
       inkscape:connector-curvature="0"
       style="fill:#000000;fill-opacity:0;stroke:#000000;stroke-width:3;stroke-dasharray:none;display:inline"
       sodipodi:nodetypes="ccccc" />
    <path
       id="svg_23-1-0"
       d="m 921.56909,360.86413 28.0258,0.37619 -5.47597,119.2118 -44,1.00513 z"
       stroke-linecap="null"
       stroke-linejoin="null"
       inkscape:connector-curvature="0"
       style="fill:#007f00;fill-opacity:1;stroke:#000000;stroke-width:3.0076859;stroke-opacity:0;stroke-dasharray:none;display:inline"
       sodipodi:nodetypes="ccccc" />
    <path
       id="svg_25-0"
       d="m 912.8191,360.25172 39,-0.92126 -13.22509,118.40346 -44.77491,-1.40346 z"
       stroke-linecap="null"
       stroke-linejoin="null"
       inkscape:connector-curvature="0"
       style="fill:#000000;fill-opacity:0;stroke:#000000;stroke-width:3;stroke-dasharray:none;display:inline"
       sodipodi:nodetypes="ccccc" />
    <path
       stroke-linejoin="null"
       stroke-linecap="null"
       d="m -21.049826,398.35406 40.67527,8.23741 -2.675265,72.13892 -42.000005,0 z"
       id="svg_22-0-3"
       inkscape:connector-curvature="0"
       style="fill:#007fff;stroke:#000000;stroke-width:3;stroke-opacity:0;stroke-dasharray:none;display:inline"
       sodipodi:nodetypes="ccccc" />
    <path
       stroke-linejoin="null"
       stroke-linecap="null"
       d="m -28.674385,394.95549 41.450182,8.05486 -3.4501773,74.94514 -42.0000047,0 z"
       id="svg_24-6"
       inkscape:connector-curvature="0"
       style="fill:#000000;fill-opacity:0;stroke:#000000;stroke-width:3;stroke-dasharray:none;display:inline"
       sodipodi:nodetypes="ccccc" />
    <path
       id="svg_28-95-8"
       d="m 820.25498,243.35761 8.55335,6.7491 C 802.58117,397.6862 760.64576,367.61317 741.49067,410.66362 l -9.00352,-3.15124 c 86.8091,-88.08677 60.66177,-60.72836 87.76783,-164.15477 z"
       stroke-linecap="null"
       stroke-linejoin="null"
       inkscape:connector-curvature="0"
       style="fill:#000000;fill-opacity:1;stroke:#000000;stroke-width:3;stroke-opacity:0;stroke-dasharray:none;display:inline"
       sodipodi:nodetypes="ccccc" />
    <path
       id="svg_28-95-2"
       d="m 738.13661,373.14415 10.10319,-0.22509 -5.17704,31.9216 -9.77845,3.82296 z"
       stroke-linecap="null"
       stroke-linejoin="null"
       inkscape:connector-curvature="0"
       style="fill:#000000;fill-opacity:1;stroke:#000000;stroke-width:3;stroke-opacity:0;stroke-dasharray:none;display:inline"
       sodipodi:nodetypes="ccccc" />
    <path
       id="svg_28-95-2-5"
       d="m 773.87883,409.63081 1.2827,-10.0433 -31.62886,1.87422 -4.75196,9.3496 z"
       stroke-linecap="null"
       stroke-linejoin="null"
       inkscape:connector-curvature="0"
       style="fill:#000000;fill-opacity:1;stroke:#000000;stroke-width:2.97143459;stroke-opacity:0;stroke-dasharray:none;display:inline"
       sodipodi:nodetypes="ccccc" />
    <text
       xml:space="preserve"
       style="font-size:100px;font-style:normal;font-variant:normal;font-weight:normal;font-stretch:normal;line-height:125%;letter-spacing:0px;word-spacing:0px;fill:#000000;fill-opacity:1;stroke:none;font-family:Standard Symbols L;-inkscape-font-specification:Sans"
       x="743.43658"
       y="236.80302"
       id="text3218"
       sodipodi:linespacing="125%"><tspan
         sodipodi:role="line"
         id="tspan3220"
         x="743.43658"
         y="236.80302"
         style="font-size:24px;font-style:oblique;font-variant:normal;font-weight:bold;font-stretch:normal;font-family:Purisa;-inkscape-font-specification:Purisa Bold Oblique">That one is</tspan><tspan
         sodipodi:role="line"
         x="743.43658"
         y="266.80301"
         style="font-size:24px;font-style:oblique;font-variant:normal;font-weight:bold;font-stretch:normal;font-family:Purisa;-inkscape-font-specification:Purisa Bold Oblique"
         id="tspan3222">ours</tspan></text>
  </g>
  <g
     id="g124"
     display="inline"
     transform="matrix(1.9572124,0,0,1,-26.209868,-177.45375)"
     style="display:inline">
    <title
       id="title124">Layer 3</title>
    <rect
       id="svg_48"
       height="1"
       width="516.07355"
       y="445"
       x="12"
       stroke-linecap="null"
       stroke-linejoin="null"
       style="fill:#000000;stroke:#000000;stroke-width:2.74368644;stroke-dasharray:none" />
  </g>
</svg>
